<svg width="90" height="90" viewBox="0 0 90 90" fill="none" xmlns="http://www.w3.org/2000/svg">
<path d="M45 8C65.402 8 82 24.598 82 45C82 65.402 65.402 82 45 82C24.598 82 8 65.402 8 45C8 24.598 24.598 8 45 8ZM45 0C20.147 0 0 20.147 0 45C0 69.853 20.147 90 45 90C69.853 90 90 69.853 90 45C90 20.147 69.853 0 45 0Z" fill="#616161"/>
<path d="M49.998 65.8331C49.057 65.8331 48.112 65.5031 47.351 64.8311C45.695 63.3691 45.539 60.8411 47.002 59.1851L56 49.0001H21.667C19.458 49.0001 17.667 47.2091 17.667 45.0001C17.667 42.7911 19.458 41.0001 21.667 41.0001H56.138L47.592 30.7241C46.193 29.0421 46.405 26.5481 48.068 25.1261C49.73 23.7061 52.227 23.8821 53.672 25.5261L68.172 42.0261C69.502 43.5391 69.499 45.8051 68.165 47.3151L52.997 64.4821C52.207 65.3761 51.105 65.8331 49.998 65.8331Z" fill="#616161"/>
</svg>
