<svg width="50" height="33" viewBox="0 0 50 33" fill="none" xmlns="http://www.w3.org/2000/svg">
<path d="M49.3597 11.2454C47.6389 10.2449 45.3578 10.1248 43.4369 10.6851C43.1967 8.60412 41.8361 6.80325 40.2353 5.52264L39.595 5.00239L39.0348 5.6427C37.9542 6.88329 37.6341 8.96429 37.7942 10.5651C37.9142 11.7256 38.2744 12.9262 38.9947 13.8866C38.4345 14.2068 37.8342 14.647 37.2739 14.8471C36.1534 15.2473 34.9128 15.6475 33.7122 15.6475H31.0309V10.0048H25.8284V0H19.8256V4.8023H9.82079V10.0048H4.6183V15.6075H0.136155L0.0561168 16.2078C-0.143979 18.769 0.176174 21.2502 1.25669 23.6113L1.6969 24.4917L1.73692 24.5718C4.89843 29.9343 10.4211 32.1754 16.464 32.1754C28.1496 32.1754 37.7942 26.9329 42.1963 15.9276C45.1577 16.0877 48.1991 15.2073 49.6398 12.3659L50 11.6456L49.3597 11.2454V11.2454ZM10.6212 6.00287H14.6231V10.405H10.6212V6.00287ZM15.8637 23.6913C15.8637 24.3717 15.3034 24.9319 14.6231 24.9319C13.9428 24.9319 13.3825 24.3717 13.3825 23.6913C13.3825 23.011 13.9428 22.4507 14.6231 22.4507C15.3034 22.4908 15.8637 23.011 15.8637 23.6913ZM10.6212 11.2054H14.6231V15.6075H10.6212V11.2054ZM5.41868 11.2054H9.82079V15.6075H5.41868V11.2054ZM16.504 31.295C10.181 31.2549 6.77933 29.1339 3.97799 26.3326C4.81839 26.3726 5.61878 26.4126 6.33912 26.4126C6.97943 26.4126 7.61973 26.4126 8.22002 26.3726C9.78077 26.2926 11.1414 26.0925 12.262 25.7723C13.1824 27.8933 14.8632 29.8543 17.8646 31.295H16.504ZM19.8256 15.6075H15.4235V11.2054H19.8256V15.6075ZM19.8256 10.405H15.4235V6.00287H19.8256V10.405ZM25.0281 15.6075H20.626V11.2054H25.0281V15.6075ZM25.0281 10.405H20.626V6.00287H25.0281V10.405ZM25.0281 5.20249H20.626V0.800383H25.0281V5.20249ZM30.2305 15.6075H25.8284V11.2054H30.2305V15.6075ZM14.9432 22.8909C14.8632 22.8509 14.7431 22.8109 14.6231 22.8109C14.1429 22.8109 13.7427 23.2111 13.7427 23.6913C13.7427 24.1716 14.1429 24.5718 14.6231 24.5718C15.1033 24.5718 15.5035 24.1716 15.5035 23.6913C15.5035 23.5713 15.4635 23.4512 15.4235 23.3712C15.3434 23.4912 15.2634 23.5713 15.1033 23.5713C14.9032 23.5713 14.7431 23.4112 14.7431 23.2111C14.7832 23.051 14.8632 22.931 14.9432 22.8909V22.8909Z" fill="#019BC6"/>
</svg>
