<svg width="50" height="53" viewBox="0 0 50 53" fill="none" xmlns="http://www.w3.org/2000/svg">
<path d="M48.7253 23.7348L27.1956 1.32721C25.9565 0.0367626 23.9456 0.0367626 22.7046 1.32721L18.2343 5.9808L23.9054 11.8834C25.2237 11.4203 26.7346 11.7309 27.785 12.8242C28.8409 13.9243 29.137 15.5104 28.6811 16.887L34.1468 22.5761C35.469 22.1017 36.9952 22.4082 38.0507 23.5092C39.5272 25.0448 39.5272 27.5342 38.0507 29.0707C37.6998 29.436 37.2832 29.7259 36.8246 29.9237C36.3661 30.1214 35.8746 30.2232 35.3782 30.2232C34.8818 30.2232 34.3904 30.1214 33.9318 29.9237C33.4733 29.7259 33.0566 29.436 32.7057 29.0707C32.1786 28.5216 31.8192 27.8225 31.6729 27.0614C31.5266 26.3002 31.5998 25.511 31.8835 24.7931L26.7866 19.4882L26.7858 33.4502C27.1556 33.6398 27.4932 33.8908 27.7854 34.1934C29.2612 35.729 29.2612 38.2176 27.7854 39.7565C26.3093 41.2921 23.9167 41.2921 22.4421 39.7565C20.9663 38.2181 20.9663 35.7294 22.4421 34.1934C22.7956 33.8248 23.2162 33.5332 23.6792 33.3356V19.2443C23.2158 19.0472 22.7951 18.7553 22.4421 18.386C21.3241 17.2232 21.055 15.5157 21.6284 14.0862L16.0374 8.26694L1.27488 23.6312C0.679304 24.2513 0.344727 25.0922 0.344727 25.9689C0.344727 26.8457 0.679304 27.6866 1.27488 28.3067L22.805 50.7144C24.0448 52.0048 26.055 52.0048 27.2968 50.7144L48.7257 28.4108C49.3211 27.7905 49.6556 26.9496 49.6555 26.0727C49.6554 25.1959 49.3208 24.355 48.7253 23.7348Z" fill="#616161"/>
</svg>
