<svg width="30" height="30" viewBox="0 0 30 30" fill="none" xmlns="http://www.w3.org/2000/svg">
<path fill-rule="evenodd" clip-rule="evenodd" d="M15.0001 1.1958C7.18441 1.1958 0.84668 7.53213 0.84668 15.3492C0.84668 21.6028 4.90207 26.9079 10.5257 28.7796C11.2328 28.9109 11.4925 28.4726 11.4925 28.0988C11.4925 27.7613 11.4793 26.6463 11.4732 25.4637C7.53574 26.3199 6.70488 23.7938 6.70488 23.7938C6.06105 22.1578 5.1334 21.7228 5.1334 21.7228C3.84902 20.8444 5.2302 20.8627 5.2302 20.8627C6.65121 20.9623 7.39981 22.3212 7.39981 22.3212C8.66215 24.4845 10.7108 23.8592 11.5185 23.4978C11.6455 22.583 12.0123 21.9584 12.4171 21.6049C9.2734 21.2475 5.96848 20.0337 5.96848 14.6105C5.96848 13.0653 6.5216 11.8027 7.42699 10.8113C7.2798 10.455 6.79535 9.01549 7.56387 7.06596C7.56387 7.06596 8.75215 6.68557 11.4568 8.51674C12.5861 8.20291 13.7971 8.04518 15.0001 8.03979C16.2025 8.04518 17.4142 8.20244 18.5455 8.51627C21.2469 6.6851 22.4338 7.06549 22.4338 7.06549C23.2042 9.01478 22.7197 10.4546 22.5728 10.8108C23.4803 11.8022 24.0294 13.0648 24.0294 14.61C24.0294 20.0461 20.7184 21.2428 17.5668 21.5935C18.0746 22.0327 18.527 22.8942 18.527 24.2145C18.527 26.1082 18.5106 27.6324 18.5106 28.0985C18.5106 28.4752 18.7656 28.9165 19.4828 28.7775C25.1031 26.9039 29.1538 21.6005 29.1538 15.3492C29.1536 7.5326 22.8165 1.19604 15.0001 1.19604V1.1958Z" fill="#616161"/>
<path d="M6.20743 21.5169C6.17625 21.5872 6.06563 21.6083 5.96485 21.5603C5.86172 21.5144 5.8043 21.4185 5.83758 21.3479C5.86805 21.2753 5.97891 21.2554 6.08133 21.3039C6.18446 21.3501 6.24305 21.4469 6.20719 21.5172L6.20743 21.5169ZM6.78071 22.1565C6.71344 22.2191 6.58149 22.1901 6.49196 22.0909C6.39914 21.9925 6.3818 21.8605 6.45047 21.797C6.52032 21.7347 6.64829 21.7642 6.7411 21.8626C6.83344 21.9625 6.85172 22.0933 6.78094 22.1568L6.78071 22.1565ZM7.33899 22.9715C7.25227 23.0319 7.11024 22.9754 7.02258 22.8496C6.93586 22.7235 6.93586 22.5723 7.02493 22.5121C7.11235 22.4516 7.25227 22.5062 7.34133 22.6309C7.42758 22.7586 7.42758 22.9098 7.33899 22.9712V22.9715ZM8.10329 23.7592C8.02594 23.8447 7.86047 23.8218 7.73954 23.7053C7.61602 23.5911 7.58157 23.4287 7.65914 23.3434C7.7379 23.2576 7.90407 23.2815 8.02571 23.3973C8.14922 23.5112 8.18649 23.6739 8.10375 23.759L8.10329 23.7592ZM9.15797 24.2165C9.12352 24.3273 8.96461 24.3777 8.80407 24.3304C8.64399 24.2818 8.53922 24.1522 8.57204 24.0402C8.60485 23.9284 8.76493 23.8761 8.92641 23.9265C9.08649 23.9748 9.19125 24.1037 9.15797 24.2165ZM10.3165 24.3011C10.3205 24.4178 10.1845 24.5144 10.0165 24.5167C9.84703 24.5207 9.70993 24.426 9.70829 24.3111C9.70829 24.1933 9.84141 24.0979 10.0106 24.0946C10.1787 24.0915 10.3167 24.1853 10.3167 24.3008L10.3165 24.3011ZM11.3941 24.1178C11.4143 24.2315 11.2973 24.3484 11.1302 24.3796C10.9662 24.4101 10.8138 24.3393 10.7927 24.2265C10.7726 24.1098 10.8916 23.9929 11.0557 23.9626C11.223 23.9338 11.373 24.0025 11.3941 24.118V24.1178Z" fill="#616161"/>
</svg>
