<svg width="50" height="50" viewBox="0 0 50 50" fill="none" xmlns="http://www.w3.org/2000/svg">
<path d="M49.4589 28.2459L46.7112 19.79L41.2655 3.03105C40.9859 2.16934 39.7655 2.16934 39.4859 3.03105L34.0405 19.79H15.9593L10.514 3.03105C10.2339 2.16934 9.01398 2.16934 8.7339 3.03105L3.28898 19.7904L0.540933 28.2459C0.418712 28.6218 0.418646 29.0268 0.540745 29.4028C0.662844 29.7788 0.90084 30.1065 1.22062 30.3389L24.9999 47.6147L48.7788 30.3385C49.0985 30.1061 49.3364 29.7785 49.4585 29.4026C49.5806 29.0267 49.5806 28.6218 49.4585 28.2459" fill="#FC6D26"/>
<path d="M25.0001 47.6152L34.0407 19.791H15.9595L25.0001 47.6148V47.6152Z" fill="#E24329"/>
<path d="M25 47.6152L15.9594 19.791H3.28906L25 47.6148V47.6152Z" fill="#FC6D26"/>
<path d="M3.28941 19.79L0.540968 28.2459C0.418714 28.6218 0.418634 29.0267 0.540739 29.4026C0.662843 29.7786 0.90086 30.1062 1.22066 30.3385L25.0003 47.6146L3.28941 19.7904V19.79Z" fill="#FCA326"/>
<path d="M3.28906 19.79H15.9594L10.5141 3.03105C10.234 2.16934 9.01406 2.16934 8.73398 3.03105L3.28906 19.7904V19.79Z" fill="#E24329"/>
<path d="M25 47.6152L34.0406 19.791H46.7113L25 47.6148V47.6152Z" fill="#FC6D26"/>
<path d="M46.7109 19.79L49.459 28.2459C49.5812 28.6218 49.5813 29.0267 49.4592 29.4026C49.3371 29.7786 49.0991 30.1062 48.7793 30.3385L25 47.6146L46.7109 19.7904V19.79Z" fill="#FCA326"/>
<path d="M46.7109 19.7896H34.041L39.4863 3.03105C39.7664 2.16934 40.9863 2.16934 41.2664 3.03105L46.7117 19.79L46.7109 19.7896Z" fill="#E24329"/>
</svg>
