<svg width="50" height="52" viewBox="0 0 50 52" fill="none" xmlns="http://www.w3.org/2000/svg">
<path d="M7.18408 38.6211L5.38721 37.5616L25.4067 2.16699L27.2024 3.22611L7.18408 38.6211Z" fill="#616161"/>
<path d="M4.97461 34.7339H45.0121V36.8513H4.97461V34.7339Z" fill="#616161"/>
<path d="M25.7939 47.727L5.76855 35.9244L6.80606 34.0893L26.8318 45.8935L25.7939 47.727ZM43.1904 16.9644L23.165 5.16026L24.2025 3.32715L44.2283 15.1293L43.1904 16.9644Z" fill="#616161"/>
<path d="M6.81084 16.9561L5.77295 15.1214L25.8003 3.31885L26.8378 5.15236L6.81084 16.9561Z" fill="#616161"/>
<path d="M42.8212 38.6211L22.8032 3.22611L24.5993 2.16699L44.6189 37.5616L42.8212 38.6211ZM6.56299 13.7168H8.63838V37.3251H6.56338L6.56299 13.7168Z" fill="#616161"/>
<path d="M41.3628 13.7163H43.4378V37.3247H41.3628V13.7163Z" fill="#616161"/>
<path d="M25.4409 46.8306L24.5347 45.2276L41.9511 34.9614L42.8573 36.5645L25.4409 46.8306Z" fill="#616161"/>
<path d="M46.1871 38.013C44.9879 40.144 42.3129 40.8713 40.2258 39.6471C38.1383 38.4213 37.4258 35.6906 38.625 33.5596C39.8258 31.4286 42.5008 30.7013 44.5883 31.9259C46.6879 33.164 47.4004 35.882 46.1871 38.013ZM11.3637 17.4815C10.1629 19.6125 7.4879 20.3398 5.4004 19.1152C3.3129 17.8894 2.6004 15.1591 3.80001 13.0281C5.00079 10.8971 7.6754 10.1698 9.7629 11.394C11.8504 12.6325 12.5629 15.3505 11.3637 17.4815ZM3.81368 38.013C2.61251 35.882 3.3254 33.164 5.41251 31.9255C7.50001 30.7013 10.1625 31.4286 11.3758 33.5596C12.575 35.6906 11.8625 38.4086 9.77501 39.6471C7.6754 40.8713 5.0129 40.144 3.81368 38.013ZM38.6371 17.4815C37.4379 15.3505 38.1504 12.6325 40.2379 11.394C42.3254 10.1698 44.9879 10.8971 46.2008 13.0281C47.4 15.1591 46.6879 17.8771 44.6004 19.1156C42.5129 20.3398 39.8379 19.6125 38.6371 17.4815ZM25.0004 50.5054C24.4274 50.506 23.8598 50.3911 23.3303 50.1675C22.8008 49.9439 22.3197 49.6159 21.9145 49.2022C21.5093 48.7886 21.188 48.2975 20.9689 47.7569C20.7499 47.2164 20.6374 46.637 20.6379 46.0521C20.6374 45.4671 20.7499 44.8877 20.9689 44.3472C21.188 43.8066 21.5093 43.3155 21.9145 42.9019C22.3197 42.4882 22.8008 42.1602 23.3303 41.9366C23.8598 41.713 24.4274 41.5981 25.0004 41.5987C25.5734 41.5981 26.141 41.713 26.6705 41.9366C27.2 42.1602 27.6811 42.4882 28.0863 42.9019C28.4915 43.3155 28.8128 43.8066 29.0319 44.3472C29.2509 44.8877 29.3634 45.4671 29.3629 46.0521C29.3629 48.5024 27.4129 50.5054 25.0004 50.5054ZM25.0004 9.44242C24.4274 9.44294 23.8598 9.32811 23.3303 9.10449C22.8008 8.88087 22.3197 8.55286 21.9145 8.13922C21.5093 7.72558 21.188 7.23444 20.9689 6.69389C20.7499 6.15334 20.6374 5.57401 20.6379 4.98903C20.6374 4.40406 20.7499 3.82472 20.9689 3.28417C21.188 2.74363 21.5093 2.25248 21.9145 1.83884C22.3197 1.4252 22.8008 1.09719 23.3303 0.873572C23.8598 0.649954 24.4274 0.535122 25.0004 0.535646C25.5734 0.535122 26.141 0.649954 26.6705 0.873572C27.2 1.09719 27.6811 1.4252 28.0863 1.83884C28.4915 2.25248 28.8128 2.74363 29.0319 3.28417C29.2509 3.82472 29.3634 4.40406 29.3629 4.98903C29.3634 5.57401 29.2509 6.15334 29.0319 6.69389C28.8128 7.23444 28.4915 7.72558 28.0863 8.13922C27.6811 8.55286 27.2 8.88087 26.6705 9.10449C26.141 9.32811 25.5734 9.44294 25.0004 9.44242Z" fill="#616161"/>
</svg>
