<svg width="50" height="52" viewBox="0 0 50 52" fill="none" xmlns="http://www.w3.org/2000/svg">
<path d="M7.18408 38.6201L5.38721 37.5606L25.4067 2.16602L27.2024 3.22513L7.18408 38.6201Z" fill="#E434AA"/>
<path d="M4.97461 34.7334H45.0121V36.8508H4.97461V34.7334Z" fill="#E434AA"/>
<path d="M25.7939 47.726L5.76855 35.9234L6.80606 34.0883L26.8318 45.8925L25.7939 47.726ZM43.1904 16.9635L23.165 5.15929L24.2025 3.32617L44.2283 15.1284L43.1904 16.9635Z" fill="#E434AA"/>
<path d="M6.81084 16.9557L5.77295 15.1209L25.8003 3.31836L26.8378 5.15187L6.81084 16.9557Z" fill="#E434AA"/>
<path d="M42.8212 38.6201L22.8032 3.22513L24.5993 2.16602L44.6188 37.5606L42.8212 38.6201ZM6.56299 13.7158H8.63838V37.3242H6.56338L6.56299 13.7158Z" fill="#E434AA"/>
<path d="M41.3628 13.7158H43.4378V37.3242H41.3628V13.7158Z" fill="#E434AA"/>
<path d="M25.4409 46.8301L24.5347 45.2271L41.9511 34.9609L42.8573 36.564L25.4409 46.8301Z" fill="#E434AA"/>
<path d="M46.1871 38.0125C44.9879 40.1435 42.3129 40.8708 40.2258 39.6466C38.1383 38.4208 37.4258 35.6901 38.625 33.5591C39.8258 31.4281 42.5008 30.7008 44.5883 31.9254C46.6879 33.1635 47.4004 35.8815 46.1871 38.0125V38.0125ZM11.3637 17.481C10.1629 19.612 7.4879 20.3393 5.4004 19.1147C3.3129 17.8889 2.6004 15.1586 3.80001 13.0276C5.00079 10.8966 7.6754 10.1693 9.7629 11.3935C11.8504 12.632 12.5629 15.35 11.3637 17.481ZM3.81368 38.0125C2.61251 35.8815 3.3254 33.1635 5.41251 31.925C7.50001 30.7008 10.1625 31.4281 11.3758 33.5591C12.575 35.6901 11.8625 38.4081 9.77501 39.6466C7.6754 40.8708 5.0129 40.1435 3.81368 38.0125V38.0125ZM38.6371 17.481C37.4379 15.35 38.1504 12.632 40.2379 11.3935C42.3254 10.1693 44.9879 10.8966 46.2008 13.0276C47.4 15.1586 46.6879 17.8766 44.6004 19.1151C42.5129 20.3393 39.8379 19.612 38.6371 17.481ZM25.0004 50.5049C24.4274 50.5055 23.8599 50.3906 23.3303 50.167C22.8008 49.9434 22.3197 49.6154 21.9145 49.2018C21.5093 48.7881 21.188 48.297 20.9689 47.7564C20.7499 47.2159 20.6374 46.6365 20.6379 46.0516C20.6374 45.4666 20.7499 44.8873 20.9689 44.3467C21.188 43.8062 21.5093 43.315 21.9145 42.9014C22.3197 42.4877 22.8008 42.1597 23.3303 41.9361C23.8599 41.7125 24.4274 41.5977 25.0004 41.5982C25.5734 41.5977 26.141 41.7125 26.6705 41.9361C27.2 42.1597 27.6811 42.4877 28.0863 42.9014C28.4915 43.315 28.8128 43.8062 29.0319 44.3467C29.2509 44.8873 29.3634 45.4666 29.3629 46.0516C29.3629 48.502 27.4129 50.5049 25.0004 50.5049ZM25.0004 9.44193C24.4274 9.44245 23.8599 9.32762 23.3303 9.104C22.8008 8.88038 22.3197 8.55237 21.9145 8.13873C21.5093 7.72509 21.188 7.23395 20.9689 6.6934C20.7499 6.15285 20.6374 5.57352 20.6379 4.98854C20.6374 4.40357 20.7499 3.82423 20.9689 3.28369C21.188 2.74314 21.5093 2.25199 21.9145 1.83835C22.3197 1.42472 22.8008 1.0967 23.3303 0.873084C23.8599 0.649466 24.4274 0.534634 25.0004 0.535158C25.5734 0.534634 26.141 0.649466 26.6705 0.873084C27.2 1.0967 27.6811 1.42472 28.0863 1.83835C28.4915 2.25199 28.8128 2.74314 29.0319 3.28369C29.2509 3.82423 29.3634 4.40357 29.3629 4.98854C29.3634 5.57352 29.2509 6.15285 29.0319 6.6934C28.8128 7.23395 28.4915 7.72509 28.0863 8.13873C27.6811 8.55237 27.2 8.88038 26.6705 9.104C26.141 9.32762 25.5734 9.44245 25.0004 9.44193" fill="#E434AA"/>
</svg>
