<svg width="30" height="30" viewBox="0 0 30 30" fill="none" xmlns="http://www.w3.org/2000/svg">
<path d="M27.1875 0.703233H2.8125C2.25945 0.697605 1.72675 0.911603 1.33129 1.29827C0.935838 1.68494 0.709925 2.21269 0.703125 2.76573V27.2392C0.711154 27.7914 0.937608 28.3179 1.33293 28.7036C1.72825 29.0893 2.26025 29.3026 2.8125 29.297H27.1875C27.7406 29.3014 28.2729 29.0866 28.6682 28.6997C29.0634 28.3128 29.2895 27.7852 29.2969 27.2321V2.7587C29.287 2.20728 29.0599 1.68205 28.6649 1.29715C28.2699 0.91226 27.739 0.698822 27.1875 0.703233Z" fill="#616161"/>
<path d="M4.93589 11.4209H9.18042V25.0779H4.93589V11.4209ZM7.05933 4.62402C7.54615 4.62402 8.02204 4.76841 8.42679 5.03893C8.83154 5.30944 9.14697 5.69393 9.33316 6.14374C9.51935 6.59356 9.56795 7.08849 9.47281 7.56593C9.37766 8.04337 9.14304 8.48186 8.79864 8.82594C8.45424 9.17001 8.01552 9.40421 7.53799 9.4989C7.06046 9.59359 6.56558 9.54452 6.11594 9.3579C5.66631 9.17128 5.28212 8.85549 5.01199 8.45048C4.74186 8.04547 4.59793 7.56944 4.59839 7.08262C4.59901 6.43034 4.85856 5.80499 5.32001 5.34399C5.78146 4.88298 6.40705 4.62402 7.05933 4.62402ZM11.8429 11.4209H15.9117V13.2959H15.9679C16.5351 12.2225 17.9179 11.0904 19.9828 11.0904C24.2812 11.0811 25.0781 13.91 25.0781 17.5779V25.0779H20.8335V18.4334C20.8335 16.8514 20.8054 14.8146 18.6281 14.8146C16.4507 14.8146 16.0804 16.5396 16.0804 18.3303V25.0779H11.8429V11.4209Z" fill="white"/>
</svg>
