<svg width="50" height="52" viewBox="0 0 50 52" fill="none" xmlns="http://www.w3.org/2000/svg">
<path d="M34.6444 35.1345C31.1288 42.4718 24.9726 47.4085 16.828 49.0314C15.5792 49.3437 14.2973 49.4964 13.0116 49.486C8.32412 49.486 4.02725 47.4922 1.94131 44.2263C-0.859472 39.8758 -1.8126 30.6524 7.42178 23.8296C7.60928 24.8704 7.99209 26.2979 8.246 27.1433C6.43323 28.5181 4.94942 30.2946 3.90615 32.3392C2.1874 35.7845 2.37881 39.2258 4.41397 42.408C5.82022 44.5533 8.04678 45.8573 10.9101 46.256C14.4864 46.7181 18.1145 46.0206 21.2812 44.2622C26.246 41.5985 29.5546 38.4163 31.7187 34.0658C31.1067 33.4203 30.7445 32.5704 30.6991 31.6733C30.6664 30.7106 31.0092 29.774 31.6522 29.069C32.2952 28.364 33.1859 27.9483 34.1288 27.9129H34.2616C35.1788 27.9082 36.0626 28.2637 36.7303 28.9056C37.3979 29.5476 37.7982 30.427 37.8484 31.3619C37.8986 32.2968 37.5948 33.2156 36.9999 33.9282C36.4049 34.6408 35.5644 35.0927 34.6522 35.1904L34.6444 35.1345ZM45.8437 27.0795C50.6132 32.5984 50.7421 39.0942 48.8983 42.8626C47.1796 46.3039 42.6483 49.7492 36.5546 49.7492C33.7099 49.69 30.9115 49.003 28.3515 47.7354C29.246 47.0855 30.5155 46.0447 31.2147 45.3947C33.1889 46.2678 35.3134 46.7313 37.4647 46.7585C41.4101 46.7585 44.3983 44.8763 46.1796 41.435C47.3241 39.162 47.3905 36.4983 46.3085 33.7708C44.9808 30.3389 42.6182 27.4272 39.5624 25.4565C35.5533 22.6977 30.827 21.2269 25.9921 21.2336H24.8476C24.5807 21.863 24.1465 22.4035 23.5942 22.7939C23.0419 23.1844 22.3935 23.4091 21.7226 23.4428H21.6015C20.6734 23.4311 19.7863 23.0506 19.1287 22.3821C18.4711 21.7135 18.0946 20.8095 18.0794 19.8622C18.0641 18.9149 18.4112 17.9988 19.047 17.3085C19.6828 16.6182 20.5571 16.2081 21.4843 16.1654H21.6132C22.2593 16.1659 22.8928 16.3481 23.4441 16.6921C23.9954 17.0361 24.4431 17.5285 24.7382 18.1153H25.7577C33.8827 18.1153 41.0155 21.2975 45.8437 27.0795ZM13.5194 36.2511C13.4525 35.5889 13.6097 34.9233 13.9647 34.3649C10.4022 28.0645 8.496 20.0772 11.4218 11.763C13.5194 5.51441 18.8007 1.2915 24.5272 1.2915C30.6366 1.2915 36.9999 6.75057 37.7616 17.2699C36.8085 16.9469 35.4179 16.4724 34.5819 16.297C34.3749 12.8556 31.5272 4.28223 24.7812 4.40983C22.3632 4.47762 18.8007 5.646 16.9687 8.04655C14.7025 10.9121 13.3842 14.4371 13.203 18.1153C12.7736 23.1588 13.9328 28.2105 16.5116 32.5346C16.654 32.4815 16.8057 32.4597 16.9569 32.4708H17.0819C18.0268 32.4533 18.9397 32.8198 19.6199 33.4894C20.3001 34.1591 20.6918 35.0772 20.7089 36.0417C20.726 37.0062 20.367 37.9382 19.711 38.6325C19.055 39.3269 18.1557 39.7268 17.2108 39.7442H17.0819C16.1602 39.7409 15.2752 39.3745 14.6116 38.7216C13.9479 38.0686 13.5567 37.1793 13.5194 36.2391V36.2511Z" fill="#616161"/>
</svg>
