<svg width="49" height="51" viewBox="0 0 49 51" fill="none" xmlns="http://www.w3.org/2000/svg">
<path d="M0 25.0104V50.0208H49V0H0V25.0104ZM39.4862 23.0096C40.6598 23.2876 41.7264 23.9142 42.5516 24.8103C43.0059 25.2931 43.4008 25.8306 43.7276 26.411C43.7276 26.475 41.6108 27.9356 40.3211 28.752C40.2741 28.784 40.0859 28.5759 39.8782 28.2598C39.6427 27.8451 39.3082 27.498 38.9058 27.251C38.5034 27.004 38.0463 26.865 37.5771 26.8472C36.0914 26.7431 35.135 27.5395 35.1428 28.848C35.1305 29.1738 35.2036 29.4971 35.3545 29.7844C35.6798 30.4767 36.2874 30.8889 38.1926 31.7292C41.701 33.2699 43.2023 34.2863 44.1353 35.7309C45.178 37.3315 45.4093 39.9166 44.7037 41.8294C43.9197 43.9103 41.9989 45.3229 39.2823 45.7911C38.0416 45.9361 36.788 45.9227 35.5505 45.7511C33.6538 45.4319 31.9068 44.5023 30.5642 43.098C30.1134 42.5897 29.2354 41.2652 29.2902 41.1691C29.4333 41.0607 29.584 40.9631 29.741 40.877L31.556 39.8526L32.9633 39.0203L33.2573 39.4644C33.7534 40.189 34.3849 40.8064 35.1154 41.2812C36.6834 42.1215 38.8237 42.0055 39.8821 41.0331C40.2374 40.6768 40.4591 40.2045 40.5086 39.6985C40.558 39.1925 40.432 38.6849 40.1526 38.2639C39.7606 37.7077 38.9766 37.2395 36.7853 36.2631C34.2569 35.1506 33.1671 34.4624 32.1714 33.3659C31.5499 32.6424 31.0909 31.7887 30.8269 30.8649C30.6299 29.8094 30.6008 28.7284 30.7406 27.6635C31.262 25.1705 33.0926 23.4298 35.7661 22.9135C37.0042 22.7572 38.2583 22.7922 39.4862 23.0176V23.0096ZM27.9849 25.1065V27.1553H21.6227V45.655H17.1108V27.1513H10.733V25.1505C10.7131 24.4605 10.7288 23.7699 10.78 23.0816C10.8114 23.0456 14.7 23.0456 19.404 23.0456H27.9614L27.9849 25.1065Z" fill="#007ACC"/>
</svg>
